<mxfile host="app.diagrams.net" modified="2024-03-27T11:08:22.498Z" agent="Mozilla/5.0 (Windows NT 10.0; Win64; x64) AppleWebKit/537.36 (KHTML, like Gecko) Chrome/122.0.0.0 Safari/537.36 OPR/108.0.0.0" version="24.1.0" etag="KbbrtMAoYVIp3JoknMWB" type="github">
  <diagram name="Page-1" id="cFRBptMlos3d0-6GkA4T">
    <mxGraphModel>
      <root>
        <mxCell id="0" />
        <mxCell id="1" parent="0" />
      </root>
    </mxGraphModel>
  </diagram>
</mxfile>
